# Blender 3.6.4
# www.blender.org
mtllib Prizm.mtl
o 立方体
v -1.000000 -1.000000 -1.000000
v 0.000000 1.000000 0.000000
v 1.000000 -1.000000 -1.000000
v -1.000000 -1.000000 1.000000
v 1.000000 -1.000000 1.000000
vn -0.0000 0.4472 -0.8944
vn 0.8944 0.4472 -0.0000
vn -0.0000 0.4472 0.8944
vn -0.8944 0.4472 -0.0000
vn -0.0000 -1.0000 -0.0000
vt 0.087693 0.293068
vt 0.087693 0.087693
vt 0.240771 0.224610
vt 0.416156 0.293068
vt 0.416156 0.087693
vt 0.569234 0.224610
vt 0.087693 0.673829
vt 0.087693 0.468453
vt 0.240771 0.605371
vt 0.416156 0.673829
vt 0.416156 0.468453
vt 0.569234 0.605371
vt 0.744619 0.255381
vt 0.912307 0.087693
vt 0.912307 0.255381
vt 0.744619 0.087693
s 0
usemtl マテリアル
f 1/1/1 2/2/1 3/3/1
f 3/4/2 2/5/2 5/6/2
f 5/7/3 2/8/3 4/9/3
f 4/10/4 2/11/4 1/12/4
f 5/13/5 1/14/5 3/15/5
f 5/13/5 4/16/5 1/14/5
