{
	"asset":{
		"generator":"Khronos glTF Blender I/O v4.1.62",
		"version":"2.0"
	},
	"scene":0,
	"scenes":[
		{
			"name":"Scene",
			"nodes":[
				0
			]
		}
	],
	"nodes":[
		{
			"mesh":0,
			"name":"\u82af"
		}
	],
	"materials":[
		{
			"doubleSided":true,
			"name":"\u30de\u30c6\u30ea\u30a2\u30eb",
			"pbrMetallicRoughness":{
				"baseColorTexture":{
					"index":0
				},
				"metallicFactor":0,
				"roughnessFactor":0.5
			}
		}
	],
	"meshes":[
		{
			"name":"\u7acb\u65b9\u4f53.001",
			"primitives":[
				{
					"attributes":{
						"POSITION":0,
						"NORMAL":1,
						"TEXCOORD_0":2
					},
					"indices":3,
					"material":0
				}
			]
		}
	],
	"textures":[
		{
			"sampler":0,
			"source":0
		}
	],
	"images":[
		{
			"mimeType":"image/png",
			"name":"Goal",
			"uri":"Goal.png"
		}
	],
	"accessors":[
		{
			"bufferView":0,
			"componentType":5126,
			"count":2163,
			"max":[
				1.0209038257598877,
				3.5277299880981445,
				2.1325490474700928
			],
			"min":[
				-1.0209038257598877,
				-3.015005588531494,
				-1.0209038257598877
			],
			"type":"VEC3"
		},
		{
			"bufferView":1,
			"componentType":5126,
			"count":2163,
			"type":"VEC3"
		},
		{
			"bufferView":2,
			"componentType":5126,
			"count":2163,
			"type":"VEC2"
		},
		{
			"bufferView":3,
			"componentType":5123,
			"count":2955,
			"type":"SCALAR"
		}
	],
	"bufferViews":[
		{
			"buffer":0,
			"byteLength":25956,
			"byteOffset":0,
			"target":34962
		},
		{
			"buffer":0,
			"byteLength":25956,
			"byteOffset":25956,
			"target":34962
		},
		{
			"buffer":0,
			"byteLength":17304,
			"byteOffset":51912,
			"target":34962
		},
		{
			"buffer":0,
			"byteLength":5910,
			"byteOffset":69216,
			"target":34963
		}
	],
	"samplers":[
		{
			"magFilter":9729,
			"minFilter":9987
		}
	],
	"buffers":[
		{
			"byteLength":75128,
			"uri":"Goal.bin"
		}
	]
}
