# Blender 3.6.4
# www.blender.org
mtllib E_Propeller.mtl
o 立方体
v -0.100000 -1.016696 -0.100000
v -0.100000 0.983304 -0.100000
v 0.100000 -1.016696 -0.100000
v 0.100000 0.983304 -0.100000
v -0.100000 -1.016696 0.100000
v -0.100000 0.983304 0.100000
v 0.100000 -1.016696 0.100000
v 0.100000 0.983304 0.100000
vn -0.0000 -0.0000 -1.0000
vn 1.0000 -0.0000 -0.0000
vn -0.0000 -0.0000 1.0000
vn -1.0000 -0.0000 -0.0000
vn -0.0000 -1.0000 -0.0000
vn -0.0000 1.0000 -0.0000
vt 0.725806 0.225806
vt 0.524194 0.225806
vt 0.524194 0.024194
vt 0.725806 0.024194
vt 0.725806 0.475806
vt 0.524194 0.475806
vt 0.524194 0.274194
vt 0.725806 0.274194
vt 0.725806 0.725806
vt 0.524194 0.725806
vt 0.524194 0.524194
vt 0.725806 0.524194
vt 0.024194 0.975806
vt 0.024194 0.774194
vt 0.225806 0.774194
vt 0.225806 0.975806
vt 0.475806 0.975806
vt 0.274194 0.975806
vt 0.274194 0.774194
vt 0.475806 0.774194
vt 0.725806 0.975806
vt 0.524194 0.975806
vt 0.524194 0.774194
vt 0.725806 0.774194
s 0
usemtl マテリアル
f 1/1/1 2/2/1 4/3/1 3/4/1
f 3/5/2 4/6/2 8/7/2 7/8/2
f 7/9/3 8/10/3 6/11/3 5/12/3
f 5/13/4 6/14/4 2/15/4 1/16/4
f 3/17/5 7/18/5 5/19/5 1/20/5
f 8/21/6 4/22/6 2/23/6 6/24/6
o 立方体.001
v 1.539352 0.862302 -0.200000
v -1.539352 0.862302 -0.200000
v 1.539352 1.138868 -0.200000
v -1.539352 1.138868 -0.200000
v 1.539352 0.862302 0.200000
v -1.539352 0.862302 0.200000
v 1.539352 1.138868 0.200000
v -1.539352 1.138868 0.200000
vn -0.0000 -0.0000 -1.0000
vn -0.0000 1.0000 -0.0000
vn -0.0000 -0.0000 1.0000
vn -0.0000 -1.0000 -0.0000
vn 1.0000 -0.0000 -0.0000
vn -1.0000 -0.0000 -0.0000
vt 0.024194 0.225806
vt 0.024194 0.024194
vt 0.225806 0.024194
vt 0.225806 0.225806
vt 0.024194 0.475806
vt 0.024194 0.274194
vt 0.225806 0.274194
vt 0.225806 0.475806
vt 0.475806 0.225806
vt 0.274194 0.225806
vt 0.274194 0.024194
vt 0.475806 0.024194
vt 0.475806 0.475806
vt 0.274194 0.475806
vt 0.274194 0.274194
vt 0.475806 0.274194
vt 0.225806 0.725806
vt 0.024194 0.725806
vt 0.024194 0.524194
vt 0.225806 0.524194
vt 0.475806 0.725806
vt 0.274194 0.725806
vt 0.274194 0.524194
vt 0.475806 0.524194
s 0
usemtl マテリアル.001
f 9/25/7 10/26/7 12/27/7 11/28/7
f 11/29/8 12/30/8 16/31/8 15/32/8
f 15/33/9 16/34/9 14/35/9 13/36/9
f 13/37/10 14/38/10 10/39/10 9/40/10
f 11/41/11 15/42/11 13/43/11 9/44/11
f 16/45/12 12/46/12 10/47/12 14/48/12
