# Blender 3.6.4
# www.blender.org
mtllib Jett.mtl
o Wing_L
v 0.300000 -0.189377 -0.930987
v 0.300000 0.189377 -0.930987
v 2.300000 -0.189377 -0.930987
v 2.300000 0.189377 -0.930987
v 0.300000 -0.189377 0.930987
v 0.300000 0.189377 0.930987
v 2.173940 -0.189377 0.286187
v 2.173940 0.189377 0.286187
v 1.300000 -0.189377 -0.930987
v 1.300000 0.189377 -0.930987
v 1.423849 -0.189377 0.587869
v 1.423849 0.189377 0.587869
v 0.800000 -0.189377 -0.930987
v 0.915727 0.189377 0.759627
v 0.800000 0.189377 -0.930987
v 0.915727 -0.189377 0.759627
v 1.813793 0.189377 -0.930987
v 1.813793 -0.189377 0.405866
v 1.813793 -0.189377 -0.930987
v 1.813793 0.189377 0.405866
v 2.300000 -0.189377 -0.182003
v 2.300000 0.189377 -0.182003
v 0.300000 -0.189377 0.000000
v 0.300000 0.189377 0.000000
v 1.300000 0.189377 0.000000
v 1.300000 -0.189377 0.000000
v 0.800000 0.189377 0.000000
v 0.800000 -0.189377 0.000000
v 1.813793 -0.189377 -0.182003
v 1.813793 0.189377 -0.182003
v 2.300000 0.189377 0.111732
v 0.300000 -0.189377 0.465494
v 1.300000 0.189377 0.293736
v 0.800000 0.189377 0.465494
v 1.813793 0.189377 0.111732
v 2.300000 -0.189377 0.111732
v 0.300000 0.189377 0.465494
v 1.300000 -0.189377 0.293736
v 0.800000 -0.189377 0.465494
v 1.813793 -0.189377 0.111732
v 2.300000 -0.189377 -0.465494
v 0.300000 0.189377 -0.465494
v 1.300000 -0.189377 -0.465494
v 0.800000 -0.189377 -0.465494
v 1.813793 -0.189377 -0.465494
v 2.300000 0.189377 -0.465494
v 0.300000 -0.189377 -0.465494
v 1.300000 0.189377 -0.465494
v 0.800000 0.189377 -0.465494
v 1.813793 0.189377 -0.465494
v 2.047880 0.189377 -0.930987
v 2.047880 -0.189377 -0.930987
v 2.047880 0.189377 -0.182003
v 2.047880 -0.189377 -0.182003
v 2.047880 0.189377 0.111732
v 2.047880 -0.189377 0.111732
v 2.047880 -0.189377 -0.465494
v 2.047880 0.189377 -0.465494
v 1.547697 -0.189377 -0.930987
v 1.547697 0.189377 -0.930987
v 1.547697 -0.189377 0.000000
v 1.547697 0.189377 0.000000
v 1.547697 0.189377 0.293736
v 1.547697 -0.189377 0.293736
v 1.547697 -0.189377 -0.465494
v 1.547697 0.189377 -0.465494
v 1.031455 0.189377 -0.930987
v 1.031455 -0.189377 -0.930987
v 1.031455 -0.189377 0.000000
v 1.031455 0.189377 0.000000
v 1.031455 0.189377 0.465494
v 1.031455 -0.189377 0.465494
v 1.031455 -0.189377 -0.465494
v 1.031455 0.189377 -0.465494
v 0.550000 -0.189377 -0.930987
v 0.550000 0.189377 0.930987
v 0.550000 0.189377 -0.930987
v 0.550000 -0.189377 0.930987
v 0.550000 0.189377 0.000000
v 0.550000 -0.189377 0.000000
v 0.550000 0.189377 0.465494
v 0.550000 -0.189377 0.465494
v 0.550000 -0.189377 -0.465494
v 0.550000 0.189377 -0.465494
vn -0.0000 -0.0000 -1.0000
vn 0.8105 -0.0000 0.5857
vn -0.0000 -0.0000 1.0000
vn -1.0000 -0.0000 -0.0000
vn -0.0000 -1.0000 -0.0000
vn -0.0000 1.0000 -0.0000
vn 0.3153 -0.0000 0.9490
vn 1.0000 -0.0000 -0.0000
vn 0.4229 -0.0000 0.9062
vn 0.3202 -0.0000 0.9473
vn 0.4243 -0.0000 0.9055
vt 0.375000 0.218485
vt 0.625000 0.218485
vt 0.625000 0.250000
vt 0.375000 0.250000
vt 0.375000 0.437500
vt 0.625000 0.437500
vt 0.625000 0.500000
vt 0.375000 0.500000
vt 0.375000 0.718750
vt 0.625000 0.718750
vt 0.625000 0.750000
vt 0.375000 0.750000
vt 0.375000 0.937500
vt 0.625000 0.937500
vt 0.625000 1.000000
vt 0.375000 1.000000
vt 0.312500 0.718750
vt 0.312500 0.750000
vt 0.812500 0.718750
vt 0.875000 0.718750
vt 0.875000 0.750000
vt 0.812500 0.750000
vt 0.812500 0.594038
vt 0.875000 0.594038
vt 0.875000 0.625000
vt 0.812500 0.625000
vt 0.312500 0.594038
vt 0.375000 0.625000
vt 0.312500 0.625000
vt 0.375000 0.091432
vt 0.625000 0.091432
vt 0.625000 0.125000
vt 0.375000 0.125000
vt 0.375000 0.031250
vt 0.625000 0.031250
vt 0.625000 0.062500
vt 0.375000 0.062500
vt 0.812500 0.658568
vt 0.875000 0.658568
vt 0.875000 0.687500
vt 0.812500 0.687500
vt 0.312500 0.658568
vt 0.375000 0.687500
vt 0.312500 0.687500
vt 0.375000 0.531515
vt 0.625000 0.531515
vt 0.625000 0.560776
vt 0.375000 0.560776
vt 0.312500 0.531515
vt 0.312500 0.560776
vt 0.812500 0.531515
vt 0.875000 0.531515
vt 0.875000 0.560776
vt 0.812500 0.560776
vt 0.375000 0.155962
vt 0.625000 0.155962
vt 0.625000 0.189224
vt 0.375000 0.189224
vt 0.687500 0.531515
vt 0.750000 0.531515
vt 0.750000 0.560776
vt 0.687500 0.560776
vt 0.187500 0.531515
vt 0.250000 0.531515
vt 0.250000 0.560776
vt 0.187500 0.560776
vt 0.187500 0.658568
vt 0.250000 0.658568
vt 0.250000 0.687500
vt 0.187500 0.687500
vt 0.687500 0.658568
vt 0.750000 0.658568
vt 0.750000 0.687500
vt 0.687500 0.687500
vt 0.187500 0.594038
vt 0.250000 0.594038
vt 0.250000 0.625000
vt 0.187500 0.625000
vt 0.687500 0.594038
vt 0.750000 0.594038
vt 0.750000 0.625000
vt 0.687500 0.625000
vt 0.687500 0.718750
vt 0.750000 0.718750
vt 0.750000 0.750000
vt 0.687500 0.750000
vt 0.187500 0.718750
vt 0.250000 0.718750
vt 0.250000 0.750000
vt 0.187500 0.750000
vt 0.375000 0.812500
vt 0.625000 0.812500
vt 0.625000 0.875000
vt 0.375000 0.875000
vt 0.375000 0.312500
vt 0.625000 0.312500
vt 0.625000 0.375000
vt 0.375000 0.375000
vt 0.625000 0.594038
vt 0.625000 0.658568
vt 0.125000 0.718750
vt 0.125000 0.750000
vt 0.125000 0.594038
vt 0.125000 0.625000
vt 0.125000 0.658568
vt 0.125000 0.687500
vt 0.125000 0.531515
vt 0.125000 0.560776
vt 0.750000 0.500000
vt 0.812500 0.500000
vt 0.125000 0.500000
vt 0.187500 0.500000
vt 0.250000 0.500000
vt 0.312500 0.500000
vt 0.687500 0.500000
vt 0.875000 0.500000
vt 0.375000 0.594038
vt 0.625000 0.625000
vt 0.375000 0.658568
vt 0.625000 0.687500
vt 0.375000 0.000000
vt 0.625000 0.000000
s 0
f 52/1/1 51/2/1 4/3/1 3/4/1
f 36/5/2 31/6/2 8/7/2 7/8/2
f 78/9/3 76/10/3 6/11/3 5/12/3
f 47/13/4 42/14/4 2/15/4 1/16/4
f 82/17/5 78/9/5 5/12/5 32/18/5
f 84/19/6 77/20/6 2/21/6 42/22/6
f 66/23/6 60/24/6 10/25/6 48/26/6
f 64/27/5 11/28/5 38/29/5
f 68/30/1 67/31/1 10/32/1 9/33/1
f 75/34/1 77/35/1 15/36/1 13/37/1
f 74/38/6 67/39/6 15/40/6 49/41/6
f 72/42/5 16/43/5 39/44/5
f 7/45/7 8/46/7 20/47/7 18/48/7
f 56/49/5 7/45/5 18/48/5 40/50/5
f 58/51/6 51/52/6 17/53/6 50/54/6
f 59/55/1 60/56/1 17/57/1 19/58/1
f 55/59/6 53/60/6 30/61/6 35/62/6
f 57/63/5 54/64/5 29/65/5 45/66/5
f 73/67/5 69/68/5 28/69/5 44/70/5
f 71/71/6 70/72/6 27/73/6 34/74/6
f 65/75/5 61/76/5 26/77/5 43/78/5
f 63/79/6 62/80/6 25/81/6 33/82/6
f 81/83/6 79/84/6 24/85/6 37/86/6
f 83/87/5 80/88/5 23/89/5 47/90/5
f 32/91/4 37/92/4 24/93/4 23/94/4
f 41/95/8 46/96/8 22/97/8 21/98/8
f 5/12/4 6/11/4 37/92/4 32/91/4
f 76/10/6 81/83/6 37/86/6 6/11/6
f 12/99/6 63/79/6 33/82/6
f 14/100/6 71/71/6 34/74/6
f 8/46/6 55/59/6 35/62/6 20/47/6
f 54/64/5 56/49/5 40/50/5 29/65/5
f 69/68/5 72/42/5 39/44/5 28/69/5
f 61/76/5 64/27/5 38/29/5 26/77/5
f 80/88/5 82/17/5 32/18/5 23/89/5
f 21/98/8 22/97/8 31/6/8 36/5/8
f 3/4/8 4/3/8 46/96/8 41/95/8
f 75/101/5 83/87/5 47/90/5 1/102/5
f 59/103/5 65/75/5 43/78/5 9/104/5
f 68/105/5 73/67/5 44/70/5 13/106/5
f 52/107/5 57/63/5 45/66/5 19/108/5
f 53/60/6 58/51/6 50/54/6 30/61/6
f 70/72/6 74/38/6 49/41/6 27/73/6
f 62/80/6 66/23/6 48/26/6 25/81/6
f 79/84/6 84/19/6 42/22/6 24/85/6
f 23/94/4 24/93/4 42/14/4 47/13/4
f 22/109/6 46/110/6 58/51/6 53/60/6
f 3/111/5 41/112/5 57/63/5 52/107/5
f 21/113/5 36/114/5 56/49/5 54/64/5
f 8/7/6 31/115/6 55/59/6
f 41/112/5 21/113/5 54/64/5 57/63/5
f 31/115/6 22/109/6 53/60/6 55/59/6
f 46/110/6 4/116/6 51/52/6 58/51/6
f 36/114/5 7/45/5 56/49/5
f 19/58/1 17/57/1 51/2/1 52/1/1
f 30/61/6 50/54/6 66/23/6 62/80/6
f 19/108/5 45/66/5 65/75/5 59/103/5
f 29/65/5 40/50/5 64/27/5 61/76/5
f 20/47/6 35/62/6 63/79/6 12/99/6
f 35/62/6 30/61/6 62/80/6 63/79/6
f 45/66/5 29/65/5 61/76/5 65/75/5
f 9/33/1 10/32/1 60/56/1 59/55/1
f 18/48/9 20/47/9 12/99/9 11/117/9
f 40/50/5 18/48/5 11/117/5 64/27/5
f 50/54/6 17/53/6 60/24/6 66/23/6
f 25/81/6 48/26/6 74/38/6 70/72/6
f 9/104/5 43/78/5 73/67/5 68/105/5
f 26/77/5 38/29/5 72/42/5 69/68/5
f 12/118/6 33/82/6 71/71/6 14/100/6
f 33/82/6 25/81/6 70/72/6 71/71/6
f 43/78/5 26/77/5 69/68/5 73/67/5
f 11/28/10 12/118/10 14/100/10 16/119/10
f 38/29/5 11/28/5 16/119/5 72/42/5
f 48/26/6 10/25/6 67/39/6 74/38/6
f 13/37/1 15/36/1 67/31/1 68/30/1
f 27/73/6 49/41/6 84/19/6 79/84/6
f 13/106/5 44/70/5 83/87/5 75/101/5
f 28/69/5 39/44/5 82/17/5 80/88/5
f 14/120/6 34/74/6 81/83/6 76/10/6
f 44/70/5 28/69/5 80/88/5 83/87/5
f 34/74/6 27/73/6 79/84/6 81/83/6
f 1/121/1 2/122/1 77/35/1 75/34/1
f 49/41/6 15/40/6 77/20/6 84/19/6
f 39/44/5 16/43/5 78/9/5 82/17/5
f 16/43/11 14/120/11 76/10/11 78/9/11
o Body
v -0.454720 -0.367995 -2.063997
v -0.454720 0.367995 -2.063997
v 0.454720 -0.367995 -2.063997
v 0.454720 0.367995 -2.063997
v -0.454720 -0.367995 2.063997
v -0.454720 0.367995 2.063997
v 0.454720 -0.367995 2.063997
v 0.454720 0.367995 2.063997
vn -0.0000 -0.0000 -1.0000
vn 1.0000 -0.0000 -0.0000
vn -0.0000 -0.0000 1.0000
vn -1.0000 -0.0000 -0.0000
vn -0.0000 -1.0000 -0.0000
vn -0.0000 1.0000 -0.0000
vt 0.375000 0.000000
vt 0.625000 0.000000
vt 0.625000 0.250000
vt 0.375000 0.250000
vt 0.625000 0.500000
vt 0.375000 0.500000
vt 0.625000 0.750000
vt 0.375000 0.750000
vt 0.625000 1.000000
vt 0.375000 1.000000
vt 0.125000 0.500000
vt 0.125000 0.750000
vt 0.875000 0.500000
vt 0.875000 0.750000
s 0
f 85/123/12 86/124/12 88/125/12 87/126/12
f 87/126/13 88/125/13 92/127/13 91/128/13
f 91/128/14 92/127/14 90/129/14 89/130/14
f 89/130/15 90/129/15 86/131/15 85/132/15
f 87/133/16 91/128/16 89/130/16 85/134/16
f 92/127/17 88/135/17 86/136/17 90/129/17
o Wing_R
v -0.300000 0.189377 -0.930987
v -0.300000 -0.189377 -0.930987
v -2.300000 0.189377 -0.930987
v -2.300000 -0.189377 -0.930987
v -0.300000 0.189377 0.930987
v -0.300000 -0.189377 0.930987
v -2.173940 0.189377 0.286187
v -2.173940 -0.189377 0.286187
v -1.300000 0.189377 -0.930987
v -1.300000 -0.189377 -0.930987
v -1.423849 0.189377 0.587869
v -1.423849 -0.189377 0.587869
v -0.800000 0.189377 -0.930987
v -0.915727 -0.189377 0.759627
v -0.800000 -0.189377 -0.930987
v -0.915727 0.189377 0.759627
v -1.813793 -0.189377 -0.930987
v -1.813793 0.189377 0.405866
v -1.813793 0.189377 -0.930987
v -1.813793 -0.189377 0.405866
v -2.300000 0.189377 -0.182003
v -2.300000 -0.189377 -0.182003
v -0.300000 0.189377 0.000000
v -0.300000 -0.189377 0.000000
v -1.300000 -0.189377 0.000000
v -1.300000 0.189377 0.000000
v -0.800000 -0.189377 0.000000
v -0.800000 0.189377 0.000000
v -1.813793 0.189377 -0.182003
v -1.813793 -0.189377 -0.182003
v -2.300000 -0.189377 0.111732
v -0.300000 0.189377 0.465494
v -1.300000 -0.189377 0.293736
v -0.800000 -0.189377 0.465494
v -1.813793 -0.189377 0.111732
v -2.300000 0.189377 0.111732
v -0.300000 -0.189377 0.465494
v -1.300000 0.189377 0.293736
v -0.800000 0.189377 0.465494
v -1.813793 0.189377 0.111732
v -2.300000 0.189377 -0.465494
v -0.300000 -0.189377 -0.465494
v -1.300000 0.189377 -0.465494
v -0.800000 0.189377 -0.465494
v -1.813793 0.189377 -0.465494
v -2.300000 -0.189377 -0.465494
v -0.300000 0.189377 -0.465494
v -1.300000 -0.189377 -0.465494
v -0.800000 -0.189377 -0.465494
v -1.813793 -0.189377 -0.465494
v -2.047880 -0.189377 -0.930987
v -2.047880 0.189377 -0.930987
v -2.047880 -0.189377 -0.182003
v -2.047880 0.189377 -0.182003
v -2.047880 -0.189377 0.111732
v -2.047880 0.189377 0.111732
v -2.047880 0.189377 -0.465494
v -2.047880 -0.189377 -0.465494
v -1.547697 0.189377 -0.930987
v -1.547697 -0.189377 -0.930987
v -1.547697 0.189377 0.000000
v -1.547697 -0.189377 0.000000
v -1.547697 -0.189377 0.293736
v -1.547697 0.189377 0.293736
v -1.547697 0.189377 -0.465494
v -1.547697 -0.189377 -0.465494
v -1.031455 -0.189377 -0.930987
v -1.031455 0.189377 -0.930987
v -1.031455 0.189377 0.000000
v -1.031455 -0.189377 0.000000
v -1.031455 -0.189377 0.465494
v -1.031455 0.189377 0.465494
v -1.031455 0.189377 -0.465494
v -1.031455 -0.189377 -0.465494
v -0.550000 0.189377 -0.930987
v -0.550000 -0.189377 0.930987
v -0.550000 -0.189377 -0.930987
v -0.550000 0.189377 0.930987
v -0.550000 -0.189377 0.000000
v -0.550000 0.189377 0.000000
v -0.550000 -0.189377 0.465494
v -0.550000 0.189377 0.465494
v -0.550000 0.189377 -0.465494
v -0.550000 -0.189377 -0.465494
vn -0.0000 -0.0000 -1.0000
vn -0.8105 -0.0000 0.5857
vn -0.0000 -0.0000 1.0000
vn 1.0000 -0.0000 -0.0000
vn -0.0000 1.0000 -0.0000
vn -0.0000 -1.0000 -0.0000
vn -0.3153 -0.0000 0.9490
vn -1.0000 -0.0000 -0.0000
vn -0.4229 -0.0000 0.9062
vn -0.3202 -0.0000 0.9473
vn -0.4243 -0.0000 0.9055
vt 0.375000 0.218485
vt 0.625000 0.218485
vt 0.625000 0.250000
vt 0.375000 0.250000
vt 0.375000 0.437500
vt 0.625000 0.437500
vt 0.625000 0.500000
vt 0.375000 0.500000
vt 0.375000 0.718750
vt 0.625000 0.718750
vt 0.625000 0.750000
vt 0.375000 0.750000
vt 0.375000 0.937500
vt 0.625000 0.937500
vt 0.625000 1.000000
vt 0.375000 1.000000
vt 0.312500 0.718750
vt 0.312500 0.750000
vt 0.812500 0.718750
vt 0.875000 0.718750
vt 0.875000 0.750000
vt 0.812500 0.750000
vt 0.812500 0.594038
vt 0.875000 0.594038
vt 0.875000 0.625000
vt 0.812500 0.625000
vt 0.312500 0.594038
vt 0.375000 0.625000
vt 0.312500 0.625000
vt 0.375000 0.091432
vt 0.625000 0.091432
vt 0.625000 0.125000
vt 0.375000 0.125000
vt 0.375000 0.031250
vt 0.625000 0.031250
vt 0.625000 0.062500
vt 0.375000 0.062500
vt 0.812500 0.658568
vt 0.875000 0.658568
vt 0.875000 0.687500
vt 0.812500 0.687500
vt 0.312500 0.658568
vt 0.375000 0.687500
vt 0.312500 0.687500
vt 0.375000 0.531515
vt 0.625000 0.531515
vt 0.625000 0.560776
vt 0.375000 0.560776
vt 0.312500 0.531515
vt 0.312500 0.560776
vt 0.812500 0.531515
vt 0.875000 0.531515
vt 0.875000 0.560776
vt 0.812500 0.560776
vt 0.375000 0.155962
vt 0.625000 0.155962
vt 0.625000 0.189224
vt 0.375000 0.189224
vt 0.687500 0.531515
vt 0.750000 0.531515
vt 0.750000 0.560776
vt 0.687500 0.560776
vt 0.187500 0.531515
vt 0.250000 0.531515
vt 0.250000 0.560776
vt 0.187500 0.560776
vt 0.187500 0.658568
vt 0.250000 0.658568
vt 0.250000 0.687500
vt 0.187500 0.687500
vt 0.687500 0.658568
vt 0.750000 0.658568
vt 0.750000 0.687500
vt 0.687500 0.687500
vt 0.187500 0.594038
vt 0.250000 0.594038
vt 0.250000 0.625000
vt 0.187500 0.625000
vt 0.687500 0.594038
vt 0.750000 0.594038
vt 0.750000 0.625000
vt 0.687500 0.625000
vt 0.687500 0.718750
vt 0.750000 0.718750
vt 0.750000 0.750000
vt 0.687500 0.750000
vt 0.187500 0.718750
vt 0.250000 0.718750
vt 0.250000 0.750000
vt 0.187500 0.750000
vt 0.375000 0.812500
vt 0.625000 0.812500
vt 0.625000 0.875000
vt 0.375000 0.875000
vt 0.375000 0.312500
vt 0.625000 0.312500
vt 0.625000 0.375000
vt 0.375000 0.375000
vt 0.625000 0.594038
vt 0.625000 0.658568
vt 0.125000 0.718750
vt 0.125000 0.750000
vt 0.125000 0.594038
vt 0.125000 0.625000
vt 0.125000 0.658568
vt 0.125000 0.687500
vt 0.125000 0.531515
vt 0.125000 0.560776
vt 0.750000 0.500000
vt 0.812500 0.500000
vt 0.125000 0.500000
vt 0.187500 0.500000
vt 0.250000 0.500000
vt 0.312500 0.500000
vt 0.687500 0.500000
vt 0.875000 0.500000
vt 0.375000 0.594038
vt 0.625000 0.625000
vt 0.375000 0.658568
vt 0.625000 0.687500
vt 0.375000 0.000000
vt 0.625000 0.000000
s 0
f 144/137/18 143/138/18 96/139/18 95/140/18
f 128/141/19 123/142/19 100/143/19 99/144/19
f 170/145/20 168/146/20 98/147/20 97/148/20
f 139/149/21 134/150/21 94/151/21 93/152/21
f 174/153/22 170/145/22 97/148/22 124/154/22
f 176/155/23 169/156/23 94/157/23 134/158/23
f 158/159/23 152/160/23 102/161/23 140/162/23
f 156/163/22 103/164/22 130/165/22
f 160/166/18 159/167/18 102/168/18 101/169/18
f 167/170/18 169/171/18 107/172/18 105/173/18
f 166/174/23 159/175/23 107/176/23 141/177/23
f 164/178/22 108/179/22 131/180/22
f 99/181/24 100/182/24 112/183/24 110/184/24
f 148/185/22 99/181/22 110/184/22 132/186/22
f 150/187/23 143/188/23 109/189/23 142/190/23
f 151/191/18 152/192/18 109/193/18 111/194/18
f 147/195/23 145/196/23 122/197/23 127/198/23
f 149/199/22 146/200/22 121/201/22 137/202/22
f 165/203/22 161/204/22 120/205/22 136/206/22
f 163/207/23 162/208/23 119/209/23 126/210/23
f 157/211/22 153/212/22 118/213/22 135/214/22
f 155/215/23 154/216/23 117/217/23 125/218/23
f 173/219/23 171/220/23 116/221/23 129/222/23
f 175/223/22 172/224/22 115/225/22 139/226/22
f 124/227/21 129/228/21 116/229/21 115/230/21
f 133/231/25 138/232/25 114/233/25 113/234/25
f 97/148/21 98/147/21 129/228/21 124/227/21
f 168/146/23 173/219/23 129/222/23 98/147/23
f 104/235/23 155/215/23 125/218/23
f 106/236/23 163/207/23 126/210/23
f 100/182/23 147/195/23 127/198/23 112/183/23
f 146/200/22 148/185/22 132/186/22 121/201/22
f 161/204/22 164/178/22 131/180/22 120/205/22
f 153/212/22 156/163/22 130/165/22 118/213/22
f 172/224/22 174/153/22 124/154/22 115/225/22
f 113/234/25 114/233/25 123/142/25 128/141/25
f 95/140/25 96/139/25 138/232/25 133/231/25
f 167/237/22 175/223/22 139/226/22 93/238/22
f 151/239/22 157/211/22 135/214/22 101/240/22
f 160/241/22 165/203/22 136/206/22 105/242/22
f 144/243/22 149/199/22 137/202/22 111/244/22
f 145/196/23 150/187/23 142/190/23 122/197/23
f 162/208/23 166/174/23 141/177/23 119/209/23
f 154/216/23 158/159/23 140/162/23 117/217/23
f 171/220/23 176/155/23 134/158/23 116/221/23
f 115/230/21 116/229/21 134/150/21 139/149/21
f 114/245/23 138/246/23 150/187/23 145/196/23
f 95/247/22 133/248/22 149/199/22 144/243/22
f 113/249/22 128/250/22 148/185/22 146/200/22
f 100/143/23 123/251/23 147/195/23
f 133/248/22 113/249/22 146/200/22 149/199/22
f 123/251/23 114/245/23 145/196/23 147/195/23
f 138/246/23 96/252/23 143/188/23 150/187/23
f 128/250/22 99/181/22 148/185/22
f 111/194/18 109/193/18 143/138/18 144/137/18
f 122/197/23 142/190/23 158/159/23 154/216/23
f 111/244/22 137/202/22 157/211/22 151/239/22
f 121/201/22 132/186/22 156/163/22 153/212/22
f 112/183/23 127/198/23 155/215/23 104/235/23
f 127/198/23 122/197/23 154/216/23 155/215/23
f 137/202/22 121/201/22 153/212/22 157/211/22
f 101/169/18 102/168/18 152/192/18 151/191/18
f 110/184/26 112/183/26 104/235/26 103/253/26
f 132/186/22 110/184/22 103/253/22 156/163/22
f 142/190/23 109/189/23 152/160/23 158/159/23
f 117/217/23 140/162/23 166/174/23 162/208/23
f 101/240/22 135/214/22 165/203/22 160/241/22
f 118/213/22 130/165/22 164/178/22 161/204/22
f 104/254/23 125/218/23 163/207/23 106/236/23
f 125/218/23 117/217/23 162/208/23 163/207/23
f 135/214/22 118/213/22 161/204/22 165/203/22
f 103/164/27 104/254/27 106/236/27 108/255/27
f 130/165/22 103/164/22 108/255/22 164/178/22
f 140/162/23 102/161/23 159/175/23 166/174/23
f 105/173/18 107/172/18 159/167/18 160/166/18
f 119/209/23 141/177/23 176/155/23 171/220/23
f 105/242/22 136/206/22 175/223/22 167/237/22
f 120/205/22 131/180/22 174/153/22 172/224/22
f 106/256/23 126/210/23 173/219/23 168/146/23
f 136/206/22 120/205/22 172/224/22 175/223/22
f 126/210/23 119/209/23 171/220/23 173/219/23
f 93/257/18 94/258/18 169/171/18 167/170/18
f 141/177/23 107/176/23 169/156/23 176/155/23
f 131/180/22 108/179/22 170/145/22 174/153/22
f 108/179/28 106/256/28 168/146/28 170/145/28
