# Blender 3.6.4
# www.blender.org
mtllib Jett.mtl
o Wing_L
v -0.150000 -1.861974 -0.189377
v -0.150000 -1.861974 0.189377
v -1.150000 -1.861974 -0.189377
v -1.150000 -1.861974 0.189377
v -0.150000 1.861974 -0.189377
v -0.150000 1.861974 0.189377
v -1.086970 0.572374 -0.189377
v -1.086970 0.572374 0.189377
v -0.650000 -1.861974 -0.189377
v -0.650000 -1.861974 0.189377
v -0.711924 1.175738 -0.189377
v -0.711924 1.175738 0.189377
v -0.400000 -1.861974 -0.189377
v -0.457864 1.519254 0.189377
v -0.400000 -1.861974 0.189377
v -0.457864 1.519254 -0.189377
v -0.906896 -1.861974 0.189377
v -0.906896 0.811732 -0.189377
v -0.906896 -1.861974 -0.189377
v -0.906896 0.811732 0.189377
v -1.150000 -0.364006 -0.189377
v -1.150000 -0.364006 0.189377
v -0.150000 0.000000 -0.189377
v -0.150000 0.000000 0.189377
v -0.650000 0.000000 0.189377
v -0.650000 0.000000 -0.189377
v -0.400000 0.000000 0.189377
v -0.400000 0.000000 -0.189377
v -0.906896 -0.364006 -0.189377
v -0.906896 -0.364006 0.189377
v -1.150000 0.223464 0.189377
v -0.150000 0.930988 -0.189377
v -0.650000 0.587472 0.189377
v -0.400000 0.930988 0.189377
v -0.906896 0.223464 0.189377
v -1.150000 0.223464 -0.189377
v -0.150000 0.930988 0.189377
v -0.650000 0.587472 -0.189377
v -0.400000 0.930988 -0.189377
v -0.906896 0.223464 -0.189377
v -1.150000 -0.930988 -0.189377
v -0.150000 -0.930988 0.189377
v -0.650000 -0.930988 -0.189377
v -0.400000 -0.930988 -0.189377
v -0.906896 -0.930988 -0.189377
v -1.150000 -0.930988 0.189377
v -0.150000 -0.930988 -0.189377
v -0.650000 -0.930988 0.189377
v -0.400000 -0.930988 0.189377
v -0.906896 -0.930988 0.189377
v -1.023940 -1.861974 0.189377
v -1.023940 -1.861974 -0.189377
v -1.023940 -0.364006 0.189377
v -1.023940 -0.364006 -0.189377
v -1.023940 0.223464 0.189377
v -1.023940 0.223464 -0.189377
v -1.023940 -0.930988 -0.189377
v -1.023940 -0.930988 0.189377
v -0.773848 -1.861974 -0.189377
v -0.773848 -1.861974 0.189377
v -0.773848 0.000000 -0.189377
v -0.773848 0.000000 0.189377
v -0.773848 0.587472 0.189377
v -0.773848 0.587472 -0.189377
v -0.773848 -0.930988 -0.189377
v -0.773848 -0.930988 0.189377
v -0.515728 -1.861974 0.189377
v -0.515728 -1.861974 -0.189377
v -0.515728 0.000000 -0.189377
v -0.515728 0.000000 0.189377
v -0.515728 0.930988 0.189377
v -0.515728 0.930988 -0.189377
v -0.515728 -0.930988 -0.189377
v -0.515728 -0.930988 0.189377
v -0.275000 -1.861974 -0.189377
v -0.275000 1.861974 0.189377
v -0.275000 -1.861974 0.189377
v -0.275000 1.861974 -0.189377
v -0.275000 0.000000 0.189377
v -0.275000 0.000000 -0.189377
v -0.275000 0.930988 0.189377
v -0.275000 0.930988 -0.189377
v -0.275000 -0.930988 -0.189377
v -0.275000 -0.930988 0.189377
v 0.152157 -1.861974 0.187649
v 0.147824 -1.861974 -0.191081
v 1.152091 -1.861974 0.176208
v 1.147758 -1.861974 -0.202521
v 0.152157 1.861974 0.187649
v 0.147824 1.861974 -0.191081
v 1.089065 0.572374 0.176930
v 1.084732 0.572374 -0.201800
v 0.652124 -1.861974 0.181929
v 0.647791 -1.861974 -0.196801
v 0.714044 1.175738 0.181220
v 0.709711 1.175738 -0.197509
v 0.402140 -1.861974 0.184789
v 0.455667 1.519254 -0.194603
v 0.397807 -1.861974 -0.193941
v 0.460000 1.519254 0.184127
v 0.904671 -1.861974 -0.199740
v 0.909004 0.811732 0.178990
v 0.909004 -1.861974 0.178990
v 0.904671 0.811732 -0.199740
v 1.152091 -0.364006 0.176208
v 1.147758 -0.364006 -0.202521
v 0.152157 0.000000 0.187649
v 0.147824 0.000000 -0.191081
v 0.647791 0.000000 -0.196801
v 0.652124 0.000000 0.181929
v 0.397807 0.000000 -0.193941
v 0.402140 0.000000 0.184789
v 0.909004 -0.364006 0.178990
v 0.904671 -0.364006 -0.199740
v 1.147758 0.223464 -0.202521
v 0.152157 0.930988 0.187649
v 0.647791 0.587472 -0.196801
v 0.397807 0.930988 -0.193941
v 0.904671 0.223464 -0.199740
v 1.152091 0.223464 0.176208
v 0.147824 0.930988 -0.191081
v 0.652124 0.587472 0.181929
v 0.402140 0.930988 0.184789
v 0.909004 0.223464 0.178990
v 1.152091 -0.930988 0.176208
v 0.147824 -0.930988 -0.191081
v 0.652124 -0.930988 0.181929
v 0.402140 -0.930988 0.184789
v 0.909004 -0.930988 0.178990
v 1.147758 -0.930988 -0.202521
v 0.152157 -0.930988 0.187649
v 0.647791 -0.930988 -0.196801
v 0.397807 -0.930988 -0.193941
v 0.904671 -0.930988 -0.199740
v 1.021706 -1.861974 -0.201079
v 1.026039 -1.861974 0.177651
v 1.021706 -0.364006 -0.201079
v 1.026039 -0.364006 0.177651
v 1.021706 0.223464 -0.201079
v 1.026039 0.223464 0.177651
v 1.026039 -0.930988 0.177651
v 1.021706 -0.930988 -0.201079
v 0.775964 -1.861974 0.180512
v 0.771631 -1.861974 -0.198218
v 0.775964 0.000000 0.180512
v 0.771631 0.000000 -0.198218
v 0.771631 0.587472 -0.198218
v 0.775964 0.587472 0.180512
v 0.775964 -0.930988 0.180512
v 0.771631 -0.930988 -0.198218
v 0.513527 -1.861974 -0.195265
v 0.517860 -1.861974 0.183465
v 0.517860 0.000000 0.183465
v 0.513527 0.000000 -0.195265
v 0.513527 0.930988 -0.195265
v 0.517860 0.930988 0.183465
v 0.517860 -0.930988 0.183465
v 0.513527 -0.930988 -0.195265
v 0.277149 -1.861974 0.186219
v 0.272815 1.861974 -0.192511
v 0.272815 -1.861974 -0.192511
v 0.277149 1.861974 0.186219
v 0.272815 0.000000 -0.192511
v 0.277149 0.000000 0.186219
v 0.272815 0.930988 -0.192511
v 0.277149 0.930988 0.186219
v 0.277149 -0.930988 0.186219
v 0.272815 -0.930988 -0.192511
v -0.373173 -2.063997 -0.450480
v 0.362769 -2.063997 -0.458900
v -0.362769 -2.063997 0.458900
v 0.373173 -2.063997 0.450480
v -0.373173 2.063997 -0.450480
v 0.362769 2.063997 -0.458900
v -0.362769 2.063997 0.458900
v 0.373173 2.063997 0.450480
vn -0.0000 -1.0000 -0.0000
vn -0.9841 0.1778 -0.0000
vn -0.0000 1.0000 -0.0000
vn 1.0000 -0.0000 -0.0000
vn -0.0000 -0.0000 -1.0000
vn -0.0000 -0.0000 1.0000
vn -0.7991 0.6012 -0.0000
vn -1.0000 -0.0000 -0.0000
vn -0.8815 0.4722 -0.0000
vn -0.8040 0.5946 -0.0000
vn -0.8823 0.4707 -0.0000
vn 0.9840 0.1778 -0.0113
vn -0.9999 -0.0000 0.0114
vn 0.0114 -0.0000 0.9999
vn -0.0114 -0.0000 -0.9999
vn 0.7991 0.6012 -0.0091
vn 0.9999 -0.0000 -0.0114
vn 0.8815 0.4722 -0.0101
vn 0.8039 0.5946 -0.0092
vn 0.8822 0.4707 -0.0101
vt 0.832277 0.563902
vt 0.775290 0.601836
vt 0.775290 0.563902
vt 0.337137 0.647342
vt 0.394124 0.621093
vt 0.394124 0.647342
vt 0.832277 0.336795
vt 0.889264 0.300918
vt 0.889264 0.336795
vt 0.889264 0.811949
vt 0.832277 0.881986
vt 0.832277 0.811949
vt 0.495139 0.338533
vt 0.565177 0.300918
vt 0.565177 0.338533
vt 0.280151 0.884397
vt 0.210113 0.922011
vt 0.210113 0.884397
vt 0.280151 0.734284
vt 0.210113 0.771552
vt 0.210113 0.734284
vt 0.591019 0.488645
vt 0.546764 0.470011
vt 0.591019 0.451377
vt 0.832277 0.410972
vt 0.775290 0.451377
vt 0.775290 0.410972
vt 0.832277 0.338533
vt 0.775290 0.376147
vt 0.775290 0.338533
vt 0.280151 0.811957
vt 0.210113 0.846782
vt 0.210113 0.811957
vt 0.565177 0.410972
vt 0.520922 0.393559
vt 0.565177 0.376147
vt 0.832277 0.598990
vt 0.889264 0.541896
vt 0.889264 0.598990
vt 0.618403 0.563902
vt 0.574148 0.528682
vt 0.618403 0.528682
vt 0.280151 0.659027
vt 0.210113 0.694248
vt 0.210113 0.659027
vt 0.832277 0.488645
vt 0.775290 0.528682
vt 0.775290 0.488645
vt 0.167459 0.659027
vt 0.123264 0.694248
vt 0.123264 0.659027
vt 0.662599 0.563902
vt 0.705252 0.528682
vt 0.705252 0.563902
vt 0.635215 0.410972
vt 0.705252 0.376147
vt 0.705252 0.410972
vt 0.140075 0.811957
vt 0.070038 0.846782
vt 0.070038 0.811957
vt 0.635215 0.488645
vt 0.705252 0.451377
vt 0.705252 0.488645
vt 0.140075 0.734284
vt 0.095880 0.771552
vt 0.095880 0.734284
vt 0.140075 0.884397
vt 0.070038 0.922011
vt 0.070038 0.884397
vt 0.635215 0.338533
vt 0.705252 0.300918
vt 0.705252 0.338533
vt 0.889264 0.671873
vt 0.832277 0.741911
vt 0.832277 0.671873
vt 0.337137 0.734191
vt 0.394124 0.691537
vt 0.394124 0.734191
vt 0.889264 0.601836
vt 0.832277 0.601836
vt -0.000000 0.922011
vt -0.000000 0.884397
vt 0.051625 0.752918
vt 0.025783 0.829370
vt 0.079009 0.694248
vt 0.097016 0.640060
vt 0.662599 0.528682
vt 0.635215 0.376147
vt 0.635215 0.451377
vt 0.635215 0.300918
vt 0.337137 0.691537
vt 0.337137 0.804228
vt 0.394124 0.804228
vt 0.775290 0.300918
vt 0.167459 0.694248
vt 0.140075 0.846782
vt 0.140075 0.771552
vt 0.140075 0.922011
vt 0.889264 0.741911
vt 0.210113 0.621093
vt 0.167459 0.621093
vt 0.705252 0.601836
vt 0.618403 0.601836
vt 0.662599 0.601836
vt 0.123264 0.621093
vt 0.280151 0.621093
vt 0.592155 0.582869
vt 0.832277 0.528682
vt 0.832277 0.451377
vt 0.832277 0.541896
vt 0.889264 0.477709
vt 0.280151 0.694248
vt 0.832277 0.477709
vt 0.889264 0.397026
vt 0.280151 0.771552
vt 0.832277 0.376147
vt 0.832277 0.300918
vt 0.775290 0.300918
vt 0.280151 0.846782
vt 0.832277 0.397026
vt 0.832277 0.037934
vt 0.775290 0.000000
vt 0.832277 -0.000000
vt 0.280151 0.647342
vt 0.337138 0.621093
vt 0.337138 0.647342
vt 0.832277 0.035877
vt 0.889264 0.000000
vt 0.889264 0.035877
vt 0.775290 0.881986
vt 0.775290 0.811949
vt 0.495139 0.037615
vt 0.565177 0.000000
vt 0.565177 0.037615
vt 0.775290 0.865139
vt 0.705252 0.902753
vt 0.705252 0.865139
vt 0.775290 0.715026
vt 0.705252 0.752295
vt 0.705252 0.715026
vt 0.591019 0.187727
vt 0.546764 0.169093
vt 0.591019 0.150459
vt 0.832277 0.190864
vt 0.775290 0.150459
vt 0.832277 0.150459
vt 0.832277 0.263303
vt 0.775290 0.225688
vt 0.832277 0.225688
vt 0.775290 0.792700
vt 0.705252 0.827524
vt 0.705252 0.792700
vt 0.565177 0.110054
vt 0.520922 0.092642
vt 0.565177 0.075229
vt 0.832277 0.298072
vt 0.889264 0.240978
vt 0.889264 0.298072
vt 0.618403 0.262984
vt 0.574148 0.227764
vt 0.618403 0.227764
vt 0.775290 0.639769
vt 0.705252 0.674990
vt 0.705252 0.639769
vt 0.832277 0.113191
vt 0.775290 0.073154
vt 0.832277 0.073154
vt 0.662598 0.639769
vt 0.618403 0.674990
vt 0.618403 0.639769
vt 0.662599 0.262984
vt 0.705252 0.227764
vt 0.705252 0.262984
vt 0.635215 0.110054
vt 0.705252 0.075229
vt 0.705252 0.110054
vt 0.635215 0.792700
vt 0.565177 0.827524
vt 0.565177 0.792700
vt 0.635215 0.187727
vt 0.705252 0.150459
vt 0.705252 0.187727
vt 0.635215 0.715026
vt 0.591019 0.752295
vt 0.591019 0.715026
vt 0.635215 0.865139
vt 0.565177 0.902754
vt 0.565177 0.865139
vt 0.635215 0.037615
vt 0.705252 0.000000
vt 0.705252 0.037615
vt 0.775290 0.741911
vt 0.775290 0.671873
vt 0.280151 0.734191
vt 0.337138 0.691537
vt 0.337138 0.734191
vt 0.775290 0.601836
vt 0.495139 0.902754
vt 0.495139 0.865139
vt 0.546764 0.733660
vt 0.520922 0.810112
vt 0.574148 0.674990
vt 0.592155 0.620803
vt 0.662599 0.227764
vt 0.635215 0.075229
vt 0.635215 0.150459
vt 0.635215 0.000000
vt 0.280151 0.691537
vt 0.280151 0.804228
vt 0.337138 0.804228
vt 0.775290 0.000000
vt 0.775290 0.037615
vt 0.775290 0.150459
vt 0.775290 0.187727
vt 0.775290 0.075229
vt 0.775290 0.110054
vt 0.775290 0.227764
vt 0.775290 0.262984
vt 0.662598 0.674990
vt 0.635215 0.827524
vt 0.635215 0.752295
vt 0.635215 0.902753
vt 0.705252 0.601836
vt 0.662598 0.601836
vt 0.618403 0.300918
vt 0.662599 0.300918
vt 0.618403 0.601836
vt 0.592155 0.281951
vt 0.775290 0.037934
vt 0.775290 0.113191
vt 0.832277 0.240978
vt 0.889264 0.176791
vt 0.775290 0.674990
vt 0.832277 0.176791
vt 0.889264 0.096108
vt 0.775290 0.752295
vt 0.775290 0.190864
vt 0.775290 0.263303
vt 0.775290 0.827524
vt 0.832277 0.096108
vt 0.390887 0.804228
vt 0.280151 0.941062
vt 0.280151 0.804228
vt 0.273667 0.621094
vt 0.384403 0.000000
vt 0.384403 0.621094
vt 0.889264 0.000000
vt 1.000000 0.136833
vt 0.889264 0.136833
vt 0.495139 0.000000
vt 0.000000 0.000000
vt 0.136833 0.621094
vt 0.000000 0.621094
vt 0.136833 0.000000
vt 0.273667 0.000000
vt 0.337137 0.621093
vt 0.889264 0.881986
vt 0.495139 0.300918
vt 0.280151 0.922011
vt 0.280151 0.621093
vt 0.832277 0.000000
vt 0.495139 0.000000
vt 0.775290 0.902753
vt 0.390887 0.941062
vt 1.000000 0.000000
vt 0.495139 0.621094
s 0
usemtl マテリアル.001
f 51/1/1 3/2/1 52/3/1
f 31/4/2 7/5/2 36/6/2
f 76/7/3 5/8/3 78/9/3
f 42/10/4 1/11/4 47/12/4
f 78/13/5 32/14/5 82/15/5
f 77/16/6 42/17/6 84/18/6
f 60/19/6 48/20/6 66/21/6
f 64/22/5 11/23/5 38/24/5
f 67/25/1 9/26/1 68/27/1
f 77/28/1 13/29/1 75/30/1
f 67/31/6 49/32/6 74/33/6
f 72/34/5 16/35/5 39/36/5
f 8/37/7 18/38/7 7/39/7
f 56/40/5 18/41/5 40/42/5
f 51/43/6 50/44/6 58/45/6
f 60/46/1 19/47/1 59/48/1
f 53/49/6 35/50/6 55/51/6
f 54/52/5 45/53/5 57/54/5
f 69/55/5 44/56/5 73/57/5
f 70/58/6 34/59/6 71/60/6
f 61/61/5 43/62/5 65/63/5
f 62/64/6 33/65/6 63/66/6
f 79/67/6 37/68/6 81/69/6
f 80/70/5 47/71/5 83/72/5
f 37/73/4 23/74/4 32/75/4
f 46/76/8 21/77/8 41/78/8
f 6/79/4 32/75/4 5/80/4
f 81/69/6 6/81/6 76/82/6
f 12/83/6 63/66/6 33/65/6
f 14/84/6 71/60/6 34/59/6
f 55/51/6 20/85/6 8/86/6
f 56/40/5 29/87/5 54/52/5
f 72/34/5 28/88/5 69/55/5
f 64/22/5 26/89/5 61/61/5
f 82/15/5 23/90/5 80/70/5
f 22/91/8 36/6/8 21/77/8
f 4/92/8 41/78/8 3/93/8
f 83/72/5 1/94/5 75/30/5
f 65/63/5 9/26/5 59/48/5
f 73/57/5 13/29/5 68/27/5
f 57/54/5 19/47/5 52/3/5
f 58/45/6 30/95/6 53/49/6
f 74/33/6 27/96/6 70/58/6
f 66/21/6 25/97/6 62/64/6
f 84/18/6 24/98/6 79/67/6
f 24/99/4 47/12/4 23/74/4
f 46/100/6 53/49/6 22/101/6
f 41/102/5 52/3/5 3/2/5
f 36/103/5 54/52/5 21/104/5
f 8/86/6 31/105/6 55/51/6
f 21/104/5 57/54/5 41/102/5
f 22/101/6 55/51/6 31/105/6
f 4/106/6 58/45/6 46/100/6
f 36/103/5 7/107/5 56/40/5
f 17/108/1 52/3/1 19/47/1
f 30/95/6 66/21/6 62/64/6
f 45/53/5 59/48/5 19/47/5
f 40/42/5 61/61/5 29/87/5
f 20/85/6 63/66/6 12/83/6
f 35/50/6 62/64/6 63/66/6
f 29/87/5 65/63/5 45/53/5
f 10/109/1 59/48/1 9/26/1
f 20/110/9 11/111/9 18/38/9
f 18/41/5 64/22/5 40/42/5
f 17/112/6 66/21/6 50/44/6
f 48/20/6 70/58/6 25/97/6
f 43/62/5 68/27/5 9/26/5
f 38/24/5 69/55/5 26/89/5
f 12/83/6 71/60/6 14/84/6
f 33/65/6 70/58/6 71/60/6
f 26/89/5 73/57/5 43/62/5
f 12/113/10 16/114/10 11/111/10
f 11/23/5 72/34/5 38/24/5
f 10/115/6 74/33/6 48/20/6
f 15/116/1 68/27/1 13/29/1
f 49/32/6 79/67/6 27/96/6
f 44/56/5 75/30/5 13/29/5
f 39/36/5 80/70/5 28/88/5
f 14/84/6 81/69/6 76/82/6
f 28/88/5 83/72/5 44/56/5
f 27/96/6 81/69/6 34/59/6
f 2/117/1 75/30/1 1/118/1
f 15/119/6 84/18/6 49/32/6
f 16/35/5 82/15/5 39/36/5
f 14/120/11 78/9/11 16/114/11
f 51/1/1 4/80/1 3/2/1
f 31/4/2 8/256/2 7/5/2
f 76/7/3 6/117/3 5/8/3
f 42/10/4 2/257/4 1/11/4
f 78/13/5 5/258/5 32/14/5
f 77/16/6 2/259/6 42/17/6
f 60/19/6 10/115/6 48/20/6
f 67/25/1 10/109/1 9/26/1
f 77/28/1 15/116/1 13/29/1
f 67/31/6 15/119/6 49/32/6
f 8/37/7 20/110/7 18/38/7
f 56/40/5 7/107/5 18/41/5
f 51/43/6 17/112/6 50/44/6
f 60/46/1 17/108/1 19/47/1
f 53/49/6 30/95/6 35/50/6
f 54/52/5 29/87/5 45/53/5
f 69/55/5 28/88/5 44/56/5
f 70/58/6 27/96/6 34/59/6
f 61/61/5 26/89/5 43/62/5
f 62/64/6 25/97/6 33/65/6
f 79/67/6 24/98/6 37/68/6
f 80/70/5 23/90/5 47/71/5
f 37/73/4 24/99/4 23/74/4
f 46/76/8 22/91/8 21/77/8
f 6/79/4 37/73/4 32/75/4
f 81/69/6 37/68/6 6/81/6
f 55/51/6 35/50/6 20/85/6
f 56/40/5 40/42/5 29/87/5
f 72/34/5 39/36/5 28/88/5
f 64/22/5 38/24/5 26/89/5
f 82/15/5 32/14/5 23/90/5
f 22/91/8 31/4/8 36/6/8
f 4/92/8 46/76/8 41/78/8
f 83/72/5 47/71/5 1/94/5
f 65/63/5 43/62/5 9/26/5
f 73/57/5 44/56/5 13/29/5
f 57/54/5 45/53/5 19/47/5
f 58/45/6 50/44/6 30/95/6
f 74/33/6 49/32/6 27/96/6
f 66/21/6 48/20/6 25/97/6
f 84/18/6 42/17/6 24/98/6
f 24/99/4 42/10/4 47/12/4
f 46/100/6 58/45/6 53/49/6
f 41/102/5 57/54/5 52/3/5
f 36/103/5 56/40/5 54/52/5
f 21/104/5 54/52/5 57/54/5
f 22/101/6 53/49/6 55/51/6
f 4/106/6 51/43/6 58/45/6
f 17/108/1 51/1/1 52/3/1
f 30/95/6 50/44/6 66/21/6
f 45/53/5 65/63/5 59/48/5
f 40/42/5 64/22/5 61/61/5
f 20/85/6 35/50/6 63/66/6
f 35/50/6 30/95/6 62/64/6
f 29/87/5 61/61/5 65/63/5
f 10/109/1 60/46/1 59/48/1
f 20/110/9 12/113/9 11/111/9
f 18/41/5 11/23/5 64/22/5
f 17/112/6 60/19/6 66/21/6
f 48/20/6 74/33/6 70/58/6
f 43/62/5 73/57/5 68/27/5
f 38/24/5 72/34/5 69/55/5
f 12/83/6 33/65/6 71/60/6
f 33/65/6 25/97/6 70/58/6
f 26/89/5 69/55/5 73/57/5
f 12/113/10 14/120/10 16/114/10
f 11/23/5 16/35/5 72/34/5
f 10/115/6 67/31/6 74/33/6
f 15/116/1 67/25/1 68/27/1
f 49/32/6 84/18/6 79/67/6
f 44/56/5 83/72/5 75/30/5
f 39/36/5 82/15/5 80/70/5
f 14/84/6 34/59/6 81/69/6
f 28/88/5 80/70/5 83/72/5
f 27/96/6 79/67/6 81/69/6
f 2/117/1 77/28/1 75/30/1
f 15/119/6 77/16/6 84/18/6
f 16/35/5 78/13/5 82/15/5
f 14/120/11 76/7/11 78/9/11
usemtl マテリアル.002
f 136/121/1 88/122/1 87/123/1
f 115/124/12 91/125/12 120/126/12
f 160/127/3 89/128/3 162/129/3
f 126/12/13 85/130/13 131/131/13
f 162/132/14 116/133/14 166/134/14
f 161/135/15 126/136/15 168/137/15
f 144/138/15 132/139/15 150/140/15
f 148/141/14 95/142/14 122/143/14
f 152/144/1 94/145/1 93/146/1
f 159/147/1 99/148/1 97/149/1
f 151/150/15 133/151/15 158/152/15
f 156/153/14 100/154/14 123/155/14
f 92/156/16 102/157/16 91/158/16
f 140/159/14 102/160/14 124/161/14
f 135/162/15 134/163/15 142/164/15
f 143/165/1 101/166/1 103/167/1
f 137/168/15 119/169/15 139/170/15
f 138/171/14 129/172/14 141/173/14
f 153/174/14 128/175/14 157/176/14
f 154/177/15 118/178/15 155/179/15
f 145/180/14 127/181/14 149/182/14
f 146/183/15 117/184/15 147/185/15
f 163/186/15 121/187/15 165/188/15
f 164/189/14 131/190/14 167/191/14
f 121/75/13 107/192/13 116/193/13
f 130/194/17 105/195/17 125/196/17
f 90/80/13 116/193/13 89/197/13
f 165/188/15 90/198/15 160/199/15
f 96/200/15 147/185/15 117/184/15
f 98/201/15 155/179/15 118/178/15
f 139/170/15 104/202/15 92/203/15
f 140/159/14 113/204/14 138/171/14
f 156/153/14 112/205/14 153/174/14
f 148/141/14 110/206/14 145/180/14
f 166/134/14 107/207/14 164/189/14
f 106/208/17 120/126/17 105/195/17
f 88/209/17 125/196/17 87/210/17
f 167/191/14 85/211/14 159/212/14
f 149/182/14 93/213/14 143/214/14
f 157/176/14 97/215/14 152/216/14
f 141/173/14 103/217/14 136/218/14
f 142/164/15 114/219/15 137/168/15
f 158/152/15 111/220/15 154/177/15
f 150/140/15 109/221/15 146/183/15
f 168/137/15 108/222/15 163/186/15
f 108/74/13 131/131/13 107/192/13
f 130/223/15 137/168/15 106/224/15
f 125/71/14 136/218/14 87/94/14
f 120/225/14 138/171/14 105/226/14
f 92/203/15 115/227/15 139/170/15
f 105/226/14 141/173/14 125/71/14
f 106/224/15 139/170/15 115/227/15
f 88/197/15 142/164/15 130/223/15
f 120/225/14 91/228/14 140/159/14
f 103/167/1 135/229/1 136/121/1
f 114/219/15 150/140/15 146/183/15
f 129/172/14 143/214/14 103/217/14
f 124/161/14 145/180/14 113/204/14
f 104/202/15 147/185/15 96/200/15
f 119/169/15 146/183/15 147/185/15
f 113/204/14 149/182/14 129/172/14
f 93/146/1 144/230/1 143/165/1
f 104/231/18 95/232/18 102/157/18
f 102/160/14 148/141/14 124/161/14
f 101/233/15 150/140/15 134/163/15
f 132/139/15 154/177/15 109/221/15
f 127/181/14 152/216/14 93/213/14
f 122/143/14 153/174/14 110/206/14
f 96/200/15 155/179/15 98/201/15
f 117/184/15 154/177/15 155/179/15
f 110/206/14 157/176/14 127/181/14
f 96/234/19 100/235/19 95/232/19
f 95/142/14 156/153/14 122/143/14
f 94/236/15 158/152/15 132/139/15
f 97/149/1 151/237/1 152/144/1
f 133/151/15 163/186/15 111/220/15
f 128/175/14 159/212/14 97/215/14
f 123/155/14 164/189/14 112/205/14
f 98/201/15 165/188/15 160/199/15
f 112/205/14 167/191/14 128/175/14
f 111/220/15 165/188/15 118/178/15
f 85/117/1 161/238/1 159/147/1
f 99/239/15 168/137/15 133/151/15
f 100/154/14 166/134/14 123/155/14
f 98/240/20 162/129/20 100/235/20
f 136/121/1 135/229/1 88/122/1
f 115/124/12 92/260/12 91/125/12
f 160/127/3 90/261/3 89/128/3
f 126/12/13 86/11/13 85/130/13
f 162/132/14 89/262/14 116/133/14
f 161/135/15 86/263/15 126/136/15
f 144/138/15 94/236/15 132/139/15
f 152/144/1 151/237/1 94/145/1
f 159/147/1 161/238/1 99/148/1
f 151/150/15 99/239/15 133/151/15
f 92/156/16 104/231/16 102/157/16
f 140/159/14 91/228/14 102/160/14
f 135/162/15 101/233/15 134/163/15
f 143/165/1 144/230/1 101/166/1
f 137/168/15 114/219/15 119/169/15
f 138/171/14 113/204/14 129/172/14
f 153/174/14 112/205/14 128/175/14
f 154/177/15 111/220/15 118/178/15
f 145/180/14 110/206/14 127/181/14
f 146/183/15 109/221/15 117/184/15
f 163/186/15 108/222/15 121/187/15
f 164/189/14 107/207/14 131/190/14
f 121/75/13 108/74/13 107/192/13
f 130/194/17 106/208/17 105/195/17
f 90/80/13 121/75/13 116/193/13
f 165/188/15 121/187/15 90/198/15
f 139/170/15 119/169/15 104/202/15
f 140/159/14 124/161/14 113/204/14
f 156/153/14 123/155/14 112/205/14
f 148/141/14 122/143/14 110/206/14
f 166/134/14 116/133/14 107/207/14
f 106/208/17 115/124/17 120/126/17
f 88/209/17 130/194/17 125/196/17
f 167/191/14 131/190/14 85/211/14
f 149/182/14 127/181/14 93/213/14
f 157/176/14 128/175/14 97/215/14
f 141/173/14 129/172/14 103/217/14
f 142/164/15 134/163/15 114/219/15
f 158/152/15 133/151/15 111/220/15
f 150/140/15 132/139/15 109/221/15
f 168/137/15 126/136/15 108/222/15
f 108/74/13 126/12/13 131/131/13
f 130/223/15 142/164/15 137/168/15
f 125/71/14 141/173/14 136/218/14
f 120/225/14 140/159/14 138/171/14
f 105/226/14 138/171/14 141/173/14
f 106/224/15 137/168/15 139/170/15
f 88/197/15 135/162/15 142/164/15
f 103/167/1 101/166/1 135/229/1
f 114/219/15 134/163/15 150/140/15
f 129/172/14 149/182/14 143/214/14
f 124/161/14 148/141/14 145/180/14
f 104/202/15 119/169/15 147/185/15
f 119/169/15 114/219/15 146/183/15
f 113/204/14 145/180/14 149/182/14
f 93/146/1 94/145/1 144/230/1
f 104/231/18 96/234/18 95/232/18
f 102/160/14 95/142/14 148/141/14
f 101/233/15 144/138/15 150/140/15
f 132/139/15 158/152/15 154/177/15
f 127/181/14 157/176/14 152/216/14
f 122/143/14 156/153/14 153/174/14
f 96/200/15 117/184/15 155/179/15
f 117/184/15 109/221/15 154/177/15
f 110/206/14 153/174/14 157/176/14
f 96/234/19 98/240/19 100/235/19
f 95/142/14 100/154/14 156/153/14
f 94/236/15 151/150/15 158/152/15
f 97/149/1 99/148/1 151/237/1
f 133/151/15 168/137/15 163/186/15
f 128/175/14 167/191/14 159/212/14
f 123/155/14 166/134/14 164/189/14
f 98/201/15 118/178/15 165/188/15
f 112/205/14 164/189/14 167/191/14
f 111/220/15 163/186/15 165/188/15
f 85/117/1 86/118/1 161/238/1
f 99/239/15 161/135/15 168/137/15
f 100/154/14 162/132/14 166/134/14
f 98/240/20 160/127/20 162/129/20
usemtl マテリアル
f 170/241/1 171/242/1 169/243/1
f 172/244/14 175/245/14 171/246/14
f 175/247/3 174/248/3 173/249/3
f 174/250/15 169/246/15 173/245/15
f 175/251/13 169/252/13 171/253/13
f 172/244/17 174/254/17 176/255/17
f 170/241/1 172/264/1 171/242/1
f 172/244/14 176/255/14 175/245/14
f 175/247/3 176/265/3 174/248/3
f 174/250/15 170/266/15 169/246/15
f 175/251/13 173/254/13 169/252/13
f 172/244/17 170/252/17 174/254/17
