# Blender 4.1.0
# www.blender.org
mtllib BossEnemy.mtl
o 立方体
v 0.962570 -1.000000 -0.884398
v 0.962570 -1.000000 0.884398
v -0.962570 -1.000000 -0.884398
v -0.962570 -1.000000 0.884398
v 0.953394 0.953394 1.000000
v -0.953394 0.953394 1.000000
v 0.953394 -0.915965 1.000000
v -0.953394 -0.915965 1.000000
v -1.000000 0.995641 -0.986537
v -0.999882 -0.958328 -0.986542
v -0.999964 0.995641 0.842642
v -0.996283 0.998452 0.860838
v -0.983677 -0.974569 0.863632
v -0.980594 -0.982229 0.887837
v 0.982553 0.982553 -1.000000
v 0.982553 -0.945137 -0.999958
v -0.978200 0.982553 -0.999957
v -1.002530 0.993843 -0.954027
v -0.978825 -0.946661 -0.995293
v -1.010041 -0.976470 -0.959563
v 0.999795 0.975335 0.780140
v 0.978967 0.991233 0.883136
v 0.984147 -0.953959 0.800701
v 0.967057 -0.996838 0.937727
v 0.999920 0.975334 -0.870034
v 0.978963 0.991280 -0.976326
v 0.993255 -0.944726 -0.877749
v 0.977596 -0.969050 -0.953923
v -0.794412 0.994370 1.000000
v -0.823781 0.976219 0.943941
v -0.500000 1.583194 1.000000
v -0.500000 1.623781 0.943941
v -0.794412 0.994370 -1.000000
v -0.823781 0.976219 -0.943941
v -0.500000 1.583194 -1.000000
v -0.500000 1.623781 -0.943941
v -0.205588 0.994370 1.000000
v -0.176219 0.976219 0.943941
v -0.205588 0.994370 -1.000000
v -0.176219 0.976219 -0.943941
v 0.205588 0.994370 1.000000
v 0.176219 0.976219 0.943941
v 0.500000 1.583194 1.000000
v 0.500000 1.623781 0.943941
v 0.205588 0.994370 -1.000000
v 0.176219 0.976219 -0.943941
v 0.500000 1.583194 -1.000000
v 0.500000 1.623781 -0.943941
v 0.794412 0.994370 1.000000
v 0.823781 0.976219 0.943941
v 0.794412 0.994370 -1.000000
v 0.823781 0.976219 -0.943941
vn -0.0000 -0.0000 1.0000
vn -0.0000 -1.0000 -0.0000
vn -0.0000 -0.0000 -1.0000
vn 0.8944 0.4472 -0.0000
vn -0.8944 0.4472 -0.0000
vn -0.0000 -0.6101 0.7923
vn 0.5793 -0.8151 -0.0000
vn 0.0037 1.0000 -0.0000
vn -0.0266 -0.2159 0.9761
vn -0.9999 -0.0082 0.0087
vn -0.9556 -0.0000 0.2945
vn -0.0014 0.9709 -0.2394
vn 1.0000 -0.0081 0.0054
vn 0.5761 -0.8174 -0.0000
vn -0.8647 0.5021 0.0120
vn -0.9800 -0.0060 0.1991
vn 0.9368 -0.0046 0.3497
vn -0.4497 -0.8932 0.0044
vn -0.0000 0.9514 0.3080
vn -0.0004 -0.8874 -0.4610
vn -0.8838 -0.0008 -0.4679
vn -0.0000 -0.9136 -0.4067
vn 0.9887 -0.0000 0.1499
vn -0.0024 -0.0024 -1.0000
vn 0.9924 -0.0026 0.1230
vn 0.9810 -0.0026 -0.1938
vn 0.9286 -0.3710 -0.0003
vn 0.6055 0.7959 -0.0000
vn 0.9769 -0.0000 0.2138
vn -0.8509 0.4255 0.3080
vn -0.8509 0.4255 -0.3080
vn -0.0000 -0.9514 -0.3080
vn -0.0000 -0.9514 0.3080
vn 0.8509 0.4255 -0.3080
vn 0.8509 0.4255 0.3080
vn -0.0196 -0.8587 0.5121
vn -0.6072 0.7945 0.0001
vn 0.0013 1.0000 -0.0025
vn -0.0000 -0.9982 0.0592
vn -1.0000 -0.0001 -0.0000
vn -0.9712 -0.0044 0.2382
vn -0.0000 0.9383 -0.3459
vn 1.0000 -0.0035 0.0001
vn 0.8983 -0.4394 -0.0014
vn -0.9421 -0.3350 0.0140
vn -0.9922 -0.0062 0.1244
vn 0.9970 0.0001 0.0776
vn -0.7021 -0.7121 -0.0000
vn 0.0047 -0.7699 -0.6382
vn -0.7550 0.0047 -0.6557
vn 0.0044 -0.9535 -0.3013
vn 0.9942 0.0005 0.1073
vn 0.9800 -0.0058 0.1991
vn 0.9797 -0.0030 -0.2004
vn 0.8386 -0.5447 0.0016
vn 0.6069 0.7948 -0.0000
vn 0.9768 -0.0000 0.2143
vt 0.873017 0.798254
vt 0.991163 0.715139
vt 0.987534 0.859508
vt 1.000000 0.572167
vt 0.865222 0.429762
vt 1.000000 0.429573
vt 0.139907 0.839186
vt 0.254689 0.753140
vt 0.254689 0.898134
vt 0.276582 0.606773
vt 0.131798 0.737568
vt 0.131798 0.602965
vt 0.136217 0.441048
vt 0.270223 0.599328
vt 0.136217 0.595614
vt 0.456676 0.423515
vt 0.437322 0.000000
vt 0.455560 0.002958
vt 0.408647 0.441048
vt 0.409182 0.569325
vt 0.408647 0.571636
vt 0.130088 0.875750
vt 0.000376 0.453048
vt 0.126647 0.451846
vt 0.869866 0.144408
vt 0.866259 0.000000
vt 0.984361 0.083111
vt 0.262228 0.896163
vt 0.262228 0.752711
vt 0.378243 0.839681
vt 0.421365 0.606773
vt 0.276582 0.737568
vt 0.276582 0.602965
vt 0.274641 0.441048
vt 0.408647 0.599328
vt 0.274641 0.595614
vt 0.438920 0.866610
vt 0.570221 0.430979
vt 0.571709 0.866642
vt 0.437322 0.425608
vt 0.441255 0.429573
vt 0.735364 0.432485
vt 0.865219 0.851323
vt 0.733484 0.857045
vt 0.733984 0.431741
vt 0.723079 0.843248
vt 0.723079 0.439755
vt 0.437322 0.434945
vt 0.440613 0.429573
vt 0.588698 0.856508
vt 0.706824 0.433418
vt 0.708483 0.858679
vt -0.000000 0.877937
vt 0.003817 0.876952
vt 0.865142 0.002006
vt 0.863547 0.855740
vt 0.432752 0.869037
vt 0.434973 0.441048
vt 0.434973 0.872799
vt 0.000000 0.448859
vt 0.131798 0.441048
vt 0.580118 0.440465
vt 0.580023 0.861024
vt 0.007360 0.439662
vt 0.012610 0.011204
vt 0.012983 0.441048
vt 0.437322 0.000000
vt 0.435233 0.005734
vt 0.000000 0.014030
vt 0.000000 0.435900
vt 0.581851 0.429573
vt 0.580118 0.856518
vt 0.580118 0.431517
vt 0.714428 0.429796
vt 0.718465 0.868042
vt 0.589168 0.433231
vt 0.583462 0.861765
vt 0.446496 0.871242
vt 0.723076 0.850134
vt 0.723079 0.437993
vt 0.131798 0.449687
vt 0.131798 0.590234
vt 0.131798 0.840017
vt 0.258030 0.745388
vt 0.258030 0.904846
vt 0.865222 0.799115
vt 0.991163 0.866479
vt 0.267633 0.602790
vt 0.267633 0.745388
vt 0.276582 0.741377
vt 0.270223 0.449687
vt 0.270223 0.590234
vt 0.258030 0.903150
vt 0.258030 0.745388
vt 0.385617 0.841034
vt 0.992174 0.083960
vt 0.412417 0.602790
vt 0.412417 0.745388
vt 0.421365 0.741377
vt 1.000000 0.714950
vt 0.865221 0.572545
vt 1.000000 0.572356
vt 0.865222 0.572356
vt 0.270223 0.444761
vt 0.568919 0.430168
vt 0.408647 0.444761
vt 0.865221 0.429573
vt 0.731692 0.858598
vt 0.436947 0.434406
vt 0.435233 0.435408
vt 0.588606 0.868503
vt 0.866259 0.422563
vt 0.434973 0.871844
vt 0.434973 0.441048
vt 0.437322 0.441433
vt 0.005782 0.004163
vt 0.564339 0.871242
vt 0.135983 0.599328
vt 0.135983 0.741925
vt 0.866259 0.151371
vt 0.280766 0.599327
vt 0.280766 0.741925
vt 0.865221 0.715139
s 0
usemtl Material
f 37/1/1 31/2/1 29/3/1
f 52/4/2 42/5/2 46/6/2
f 33/7/3 35/8/3 39/9/3
f 36/10/4 38/11/4 40/12/4
f 32/13/5 34/14/5 30/15/5
f 8/16/6 24/17/6 7/18/6
f 11/19/7 18/20/7 9/21/7
f 1/22/2 4/23/2 3/24/2
f 49/25/1 43/26/1 41/27/1
f 45/28/3 47/29/3 51/30/3
f 48/31/4 50/32/4 52/33/4
f 44/34/5 46/35/5 42/36/5
f 26/37/8 12/38/8 22/39/8
f 4/40/9 24/17/9 14/41/9
f 11/42/10 10/43/10 13/44/10
f 12/45/11 8/46/11 6/47/11
f 26/37/12 17/48/12 18/49/12
f 27/50/13 21/51/13 23/52/13
f 1/22/14 24/53/14 2/54/14
f 5/55/1 8/16/1 7/18/1
f 20/56/15 13/44/15 10/43/15
f 13/44/16 12/45/16 11/42/16
f 10/57/17 18/58/17 20/59/17
f 3/24/18 14/60/18 20/61/18
f 22/39/19 6/62/19 5/63/19
f 28/64/20 19/65/20 16/66/20
f 19/65/21 18/67/21 17/68/21
f 3/69/22 28/64/22 1/70/22
f 26/71/23 16/72/23 15/73/23
f 17/68/24 16/66/24 19/65/24
f 23/52/25 22/74/25 24/75/25
f 27/50/26 26/71/26 25/76/26
f 28/77/27 23/52/27 24/75/27
f 22/39/28 25/78/28 26/37/28
f 7/79/29 22/74/29 5/80/29
f 31/81/30 30/15/30 29/82/30
f 35/8/31 34/83/31 36/84/31
f 34/83/32 39/9/32 40/85/32
f 38/86/33 29/3/33 30/87/33
f 40/12/34 35/88/34 36/10/34
f 31/89/35 38/11/35 32/90/35
f 43/91/30 42/36/30 41/92/30
f 47/29/31 46/93/31 48/94/31
f 46/93/32 51/30/32 52/95/32
f 42/96/33 49/25/33 41/27/33
f 52/33/34 47/97/34 48/31/34
f 43/98/35 50/32/35 44/99/35
f 40/100/2 30/101/2 34/102/2
f 52/4/2 50/103/2 42/5/2
f 36/10/4 32/90/4 38/11/4
f 32/13/5 36/104/5 34/14/5
f 8/16/36 14/41/36 24/17/36
f 11/105/37 12/38/37 18/49/37
f 1/22/2 2/54/2 4/23/2
f 48/31/4 44/99/4 50/32/4
f 44/34/5 48/106/5 46/35/5
f 26/37/38 18/49/38 12/38/38
f 4/23/39 2/54/39 24/53/39
f 11/42/40 9/107/40 10/43/40
f 12/45/41 14/108/41 8/46/41
f 26/109/42 15/110/42 17/68/42
f 27/50/43 25/76/43 21/51/43
f 1/111/44 28/77/44 24/75/44
f 5/55/1 6/112/1 8/16/1
f 20/56/45 14/108/45 13/44/45
f 13/44/46 14/108/46 12/45/46
f 10/113/47 9/114/47 18/115/47
f 3/24/48 4/23/48 14/60/48
f 22/39/19 12/38/19 6/62/19
f 28/64/49 20/116/49 19/65/49
f 19/65/50 20/116/50 18/67/50
f 3/69/51 20/116/51 28/64/51
f 26/71/52 28/77/52 16/72/52
f 17/68/3 15/110/3 16/66/3
f 23/52/53 21/51/53 22/74/53
f 27/50/54 28/77/54 26/71/54
f 28/77/55 27/50/55 23/52/55
f 22/39/56 21/117/56 25/78/56
f 7/79/57 24/75/57 22/74/57
f 31/81/30 32/13/30 30/15/30
f 35/8/31 33/7/31 34/83/31
f 34/83/32 33/7/32 39/9/32
f 38/86/33 37/1/33 29/3/33
f 40/12/34 39/118/34 35/88/34
f 31/89/35 37/119/35 38/11/35
f 43/91/30 44/34/30 42/36/30
f 47/29/31 45/28/31 46/93/31
f 46/93/32 45/28/32 51/30/32
f 42/96/33 50/120/33 49/25/33
f 52/33/34 51/121/34 47/97/34
f 43/98/35 49/122/35 50/32/35
f 40/100/2 38/123/2 30/101/2
